<svg width="60" height="60" viewBox="0 0 60 60" fill="none" xmlns="http://www.w3.org/2000/svg">
  <defs>
    <linearGradient id="augmedixGradient" x1="0%" y1="0%" x2="100%" y2="100%">
      <stop offset="0%" style="stop-color:#FF6B35;stop-opacity:1" />
      <stop offset="100%" style="stop-color:#E53E3E;stop-opacity:1" />
    </linearGradient>
  </defs>
  
  <!-- Background -->
  <circle cx="30" cy="30" r="30" fill="url(#augmedixGradient)"/>
  
  <!-- Letter A -->
  <path d="M20 45 L25 30 L27 30 L32 45 L29 45 L28 42 L24 42 L23 45 Z M25 39 L27 39 L26 36 Z" 
        fill="white" font-weight="bold"/>
  
  <!-- Medical Plus -->
  <rect x="36" y="25" width="3" height="15" rx="1" fill="white"/>
  <rect x="30" y="31" width="15" height="3" rx="1" fill="white"/>
  
  <!-- Tech Circuit Pattern -->
  <circle cx="15" cy="15" r="3" fill="white" opacity="0.6"/>
  <circle cx="45" cy="15" r="2" fill="white" opacity="0.4"/>
  <circle cx="15" cy="45" r="2" fill="white" opacity="0.4"/>
  
  <!-- Connection Lines -->
  <line x1="15" y1="18" x2="15" y2="25" stroke="white" stroke-width="1" opacity="0.5"/>
  <line x1="18" y1="15" x2="25" y2="15" stroke="white" stroke-width="1" opacity="0.5"/>
  <line x1="43" y1="15" x2="35" y2="15" stroke="white" stroke-width="1" opacity="0.5"/>
  
  <!-- Data Points -->
  <circle cx="12" cy="30" r="1" fill="white" opacity="0.7"/>
  <circle cx="48" cy="30" r="1" fill="white" opacity="0.7"/>
  <circle cx="30" cy="12" r="1" fill="white" opacity="0.7"/>
  <circle cx="30" cy="48" r="1" fill="white" opacity="0.7"/>
</svg>